<?xml version="1.0" encoding="UTF-8" standalone="no"?><!DOCTYPE svg PUBLIC "-//W3C//DTD SVG 1.1//EN" "http://www.w3.org/Graphics/SVG/1.1/DTD/svg11.dtd"><svg width="100%" height="100%" viewBox="0 0 60 60" version="1.1" xmlns="http://www.w3.org/2000/svg" xmlns:xlink="http://www.w3.org/1999/xlink" xml:space="preserve" xmlns:serif="http://www.serif.com/" style="fill-rule:evenodd;clip-rule:evenodd;stroke-linejoin:round;stroke-miterlimit:2;"><rect id="Artboard1" x="0" y="0" width="60" height="60" style="fill:none;"/><path d="M54.351,23.285l3.918,3.918c0.58,0.58 0.907,1.368 0.907,2.188c-0,0.821 -0.327,1.608 -0.907,2.188l-15.674,15.674c-0.58,0.58 -1.368,0.907 -2.188,0.907c-0.821,-0 -1.609,-0.327 -2.189,-0.907l-3.918,-3.918c-1.078,-1.08 -1.203,-2.804 -0.294,-4.03c0.244,-0.328 0.21,-0.786 -0.079,-1.075l-1.756,-1.753c-0.322,-0.322 -0.844,-0.321 -1.165,0l-21.321,21.322c-0.974,0.885 -2.245,1.377 -3.562,1.377c-2.907,-0 -5.299,-2.392 -5.299,-5.299c0,-1.313 0.489,-2.58 1.369,-3.553c0.008,-0.009 21.331,-21.331 21.331,-21.331c0.154,-0.154 0.241,-0.364 0.241,-0.583c0,-0.218 -0.087,-0.428 -0.241,-0.583l-1.756,-1.755c-0.289,-0.289 -0.746,-0.323 -1.074,-0.08c-1.225,0.909 -2.949,0.783 -4.029,-0.294l-3.917,-3.917c-0.581,-0.58 -0.907,-1.368 -0.907,-2.188c0,-0.821 0.326,-1.608 0.907,-2.188l15.674,-15.674c0.58,-0.58 1.368,-0.907 2.188,-0.907c0.821,0 1.608,0.327 2.188,0.907l3.918,3.918c1.078,1.08 1.204,2.804 0.294,4.03c-0.243,0.328 -0.21,0.785 0.079,1.074l12.158,12.157c0.288,0.289 0.745,0.323 1.074,0.079c1.225,-0.909 2.95,-0.782 4.03,0.296Zm-36.081,0.81c0.322,0.322 0.844,0.322 1.166,0l15.674,-15.673c0.155,-0.155 0.242,-0.365 0.242,-0.583c-0,-0.219 -0.087,-0.429 -0.242,-0.583l-3.918,-3.919c-0.322,-0.322 -0.844,-0.322 -1.166,0l-15.674,15.674c-0.155,0.155 -0.242,0.364 -0.242,0.583c0,0.219 0.087,0.428 0.242,0.583l3.918,3.918Zm21.552,21.552c0.322,0.322 0.844,0.322 1.166,-0l15.675,-15.674c0.154,-0.155 0.241,-0.364 0.241,-0.583c-0,-0.219 -0.087,-0.428 -0.241,-0.583l-3.919,-3.918c-0.322,-0.322 -0.844,-0.322 -1.166,-0l-15.674,15.673c-0.155,0.155 -0.242,0.365 -0.242,0.583c0,0.219 0.087,0.429 0.242,0.583l3.918,3.919Zm-31.756,10.561l0.001,-0.001l21.335,-21.336c0.154,-0.155 0.241,-0.364 0.241,-0.583c-0,-0.219 -0.087,-0.429 -0.242,-0.583l-3.108,-3.105c-0.322,-0.322 -0.843,-0.322 -1.165,-0l-21.334,21.335l-0.003,0.003c-1.164,1.173 -1.164,3.093 0,4.266l0.004,0.004c1.174,1.167 3.097,1.167 4.271,0Zm15.347,-32.872c-0.154,0.155 -0.241,0.364 -0.241,0.583c-0,0.219 0.087,0.428 0.241,0.583l12.087,12.083c0.322,0.322 0.844,0.322 1.166,0l10.935,-10.937c0.322,-0.322 0.322,-0.844 -0,-1.166l-12.084,-12.083c-0.322,-0.322 -0.844,-0.322 -1.166,-0l-10.938,10.937Z" style="fill-rule:nonzero;"/></svg>