<?xml version="1.0" encoding="UTF-8" standalone="no"?><!DOCTYPE svg PUBLIC "-//W3C//DTD SVG 1.1//EN" "http://www.w3.org/Graphics/SVG/1.1/DTD/svg11.dtd"><svg width="100%" height="100%" viewBox="0 0 60 60" version="1.1" xmlns="http://www.w3.org/2000/svg" xmlns:xlink="http://www.w3.org/1999/xlink" xml:space="preserve" xmlns:serif="http://www.serif.com/" style="fill-rule:evenodd;clip-rule:evenodd;stroke-linejoin:round;stroke-miterlimit:2;"><path d="M52.076,22.025l3.814,3.767c0.557,0.551 0.872,1.299 0.872,2.078c-0,0.779 -0.315,1.527 -0.872,2.077l-15.256,15.069c-0.562,0.555 -1.324,0.866 -2.118,0.866c-0.794,0 -1.556,-0.311 -2.118,-0.866l-3.813,-3.766c-1.036,-1.026 -1.158,-2.663 -0.284,-3.826c0.249,-0.33 0.214,-0.792 -0.08,-1.082l-1.709,-1.686c-0.321,-0.317 -0.837,-0.317 -1.158,0.001l-20.009,19.766c-0.945,0.848 -2.178,1.318 -3.456,1.318c-2.814,-0 -5.135,-2.283 -5.135,-5.062c0,-1.251 0.471,-2.457 1.318,-3.386c0.013,-0.014 20.024,-19.78 20.024,-19.78c0.157,-0.154 0.245,-0.366 0.245,-0.586c-0,-0.221 -0.088,-0.432 -0.245,-0.587l-1.709,-1.688c-0.288,-0.284 -0.74,-0.318 -1.067,-0.078c-1.186,0.869 -2.854,0.749 -3.899,-0.28l-3.814,-3.767c-0.557,-0.551 -0.872,-1.299 -0.872,-2.078c0,-0.779 0.315,-1.526 0.872,-2.077l15.256,-15.069c0.562,-0.555 1.324,-0.866 2.118,-0.866c0.794,0 1.557,0.311 2.118,0.866l3.813,3.767c1.036,1.025 1.158,2.662 0.284,3.825c-0.248,0.33 -0.214,0.792 0.079,1.082l11.833,11.688c0.288,0.284 0.74,0.318 1.067,0.078c1.186,-0.869 2.856,-0.749 3.901,0.282Zm-30.112,-0.003c-0.156,0.155 -0.245,0.366 -0.245,0.587c0,0.22 0.089,0.431 0.246,0.586l11.763,11.617c0.321,0.318 0.838,0.318 1.159,0l10.643,-10.515c0.157,-0.155 0.245,-0.366 0.245,-0.586c0,-0.221 -0.088,-0.432 -0.245,-0.587l-11.761,-11.617c-0.321,-0.317 -0.838,-0.317 -1.159,-0l-10.646,10.515Zm-14.172,30.924l0.002,-0.002l20.023,-19.78c0.157,-0.155 0.245,-0.366 0.245,-0.586c-0,-0.221 -0.089,-0.432 -0.246,-0.587l-3.024,-2.986c-0.322,-0.317 -0.838,-0.316 -1.159,0.001l-20.023,19.779l-0.002,0.003c-1.147,1.142 -1.147,3.012 0,4.154l0.004,0.004c1.149,1.128 3.032,1.128 4.18,-0Zm9.167,-30.142c0.321,0.318 0.837,0.318 1.158,0l15.256,-15.069c0.157,-0.154 0.245,-0.366 0.245,-0.586c0,-0.221 -0.088,-0.432 -0.245,-0.587l-3.814,-3.767c-0.321,-0.317 -0.837,-0.317 -1.158,0l-15.256,15.069c-0.157,0.155 -0.245,0.366 -0.245,0.587c-0,0.22 0.088,0.431 0.245,0.586l3.814,3.767Zm20.976,20.72c0.322,0.317 0.838,0.317 1.159,0l15.256,-15.069c0.157,-0.155 0.245,-0.366 0.245,-0.586c0,-0.221 -0.088,-0.432 -0.245,-0.587l-3.814,-3.767c-0.321,-0.317 -0.838,-0.317 -1.159,-0l-15.256,15.069c-0.156,0.155 -0.245,0.366 -0.245,0.586c0,0.221 0.089,0.432 0.245,0.587l3.814,3.767Z" style="fill-rule:nonzero;stroke:#000;stroke-width:0.15px;"/><path d="M49.386,51.281l-3.163,-3.125l2.108,-2.083l3.164,3.125l3.163,-3.125l2.109,2.083l-3.163,3.125l3.163,3.124l-2.109,2.083l-3.163,-3.124l-3.164,3.124l-2.108,-2.083l3.163,-3.124Z" style="stroke:#000;stroke-width:0.15px;stroke-linecap:round;stroke-miterlimit:1.5;"/><rect id="Artboard1" x="0" y="0" width="60" height="60" style="fill:none;"/></svg>